<?xml version="1.0" encoding="iso-8859-1"?>
<!-- Uploaded to: SVG Repo, www.svgrepo.com, Generator: SVG Repo Mixer Tools -->
<svg height="800px" width="800px" version="1.1" id="Layer_1" xmlns="http://www.w3.org/2000/svg" xmlns:xlink="http://www.w3.org/1999/xlink" 
	 viewBox="0 0 512.002 512.002" xml:space="preserve">
<g>
	<path style="fill:#5F938D;" d="M260.066,164.41c-14.159-32.307,11.372-74.715,11.372-74.715s48.485,9.971,62.643,42.276
		c14.159,32.306-11.372,74.715-11.372,74.715S274.224,196.715,260.066,164.41z"/>
	<path style="fill:#5F938D;" d="M352.95,132.208c30.343-17.986,75.543,2.191,75.543,2.191s-3.994,49.338-34.336,67.325
		c-30.343,17.986-75.543-2.191-75.543-2.191S322.607,150.194,352.95,132.208z"/>
</g>
<path style="fill:#88D1CB;" d="M308.541,132.307c12.832-32.855,60.872-44.791,60.872-44.791s33.489,43.643-14.689,49.433
	c-35.021,4.208-31.781,69.548-31.781,69.548S295.709,165.163,308.541,132.307z"/>
<g>
	<path style="fill:#5F938D;" d="M277.203,348.568c14.159,32.307-11.372,74.715-11.372,74.715s-48.485-9.97-62.643-42.276
		c-14.159-32.306,11.372-74.715,11.372-74.715S263.045,316.262,277.203,348.568z"/>
	<path style="fill:#5F938D;" d="M182.339,375.819c-30.343,17.986-75.543-2.191-75.543-2.191s3.994-49.338,34.336-67.325
		s75.543,2.191,75.543,2.191S212.682,357.833,182.339,375.819z"/>
</g>
<path style="fill:#88D1CB;" d="M228.728,380.67c-12.832,32.855-60.872,44.791-60.872,44.791s-12.753-19.357-16.693-42.107
	c-1.817-10.495,35.877-7.011,39.929-17.383c12.832-32.855,23.235-59.49,23.235-59.49S241.56,347.815,228.728,380.67z"/>
<path style="fill:#71BCB5;" d="M490.265,243.211c-0.884-2.613-0.884-5.443,0-8.056l14.01-41.434
	c3.727-11.022-8.226-20.76-18.268-14.881l-37.008,21.667l0,0c-6.208,3.634-13.915,3.458-19.956-0.444
	c-43.401-28.034-110.219-60.858-185.182-60.858c-51.076,0-98.378,15.241-137.064,33.821c12.59,18.956,19.941,41.694,19.941,66.156
	s-7.351,47.2-19.941,66.156c38.688,18.58,85.988,33.821,137.064,33.821c74.963,0,141.781-32.824,185.182-60.858
	c6.043-3.903,13.749-4.079,19.956-0.444l0,0l37.008,21.667c10.041,5.879,21.995-3.858,18.268-14.881L490.265,243.211z"/>
<path style="fill:#88D1CB;" d="M106.797,173.027c-60.4,29.009-99.805,66.156-99.805,66.156s39.405,37.149,99.805,66.156
	c12.59-18.956,19.941-41.694,19.941-66.156S119.387,191.983,106.797,173.027z"/>
<path d="M496.938,240.323c0,0,0-0.001,0-0.002c-0.346-1.021-0.346-2.147,0-3.172l13.977-41.338
	c2.72-8.042,0.224-16.704-6.358-22.066c-6.58-5.361-15.569-6.053-22.895-1.766l-36.923,21.617
	c-3.733,2.184-8.313,2.084-11.954-0.269c-3.034-1.96-6.199-3.947-9.463-5.945c12.107-21.743,14.245-46.485,14.338-47.635
	c0.26-3.209-1.533-6.233-4.473-7.546c-1.222-0.546-19.491-8.546-41.113-10.048c-5.043-21.25-16.052-38.137-16.561-38.91
	c-1.772-2.687-5.041-3.97-8.171-3.19c-1.502,0.373-27.12,6.93-46.853,23.645c-20.455-15.818-46.353-21.298-47.536-21.542
	c-3.157-0.647-6.374,0.764-8.035,3.522c-0.573,0.952-12.857,21.599-15.981,45.787c-1.673-0.031-3.345-0.068-5.026-0.068
	c-45.266,0-92.38,11.604-140.034,34.491C43.254,195.007,4.025,231.666,2.384,233.212C0.864,234.647,0,236.645,0,238.736
	c0,2.091,0.864,4.09,2.384,5.524c1.64,1.546,40.869,38.206,101.495,67.322c4.715,2.265,9.426,4.415,14.129,6.458
	c-15.689,22.965-18.296,52.802-18.409,54.215c-0.26,3.21,1.534,6.233,4.473,7.546c1.223,0.546,19.49,8.549,41.113,10.051
	c5.044,21.249,16.052,38.135,16.561,38.906c1.426,2.165,3.827,3.417,6.34,3.416c0.607,0,1.222-0.073,1.831-0.225
	c1.502-0.373,27.12-6.93,46.852-23.644c20.457,15.819,46.359,21.298,47.536,21.541c0.511,0.105,1.023,0.155,1.531,0.155
	c2.626,0,5.112-1.366,6.504-3.677c1.122-1.865,27.318-46.083,11.793-81.506c-0.242-0.552-0.494-1.1-0.756-1.647
	c60.529-8.735,113.322-35.719,149.408-59.027c3.641-2.353,8.22-2.459,11.957-0.269l36.922,21.617
	c7.324,4.288,16.313,3.597,22.896-1.766c6.581-5.362,9.078-14.024,6.357-22.065L496.938,240.323z M410.233,179.663
	c-18.361-10.415-39.571-20.722-62.874-29.127c2.209-1.81,4.819-3.335,8.073-5.214c1.022-0.589,2.076-1.199,3.164-1.842
	c8.066-4.781,17.527-6.418,26.797-6.389c0.252,0.015,0.506,0.016,0.762,0.006c14.48,0.188,28.386,4.367,35.642,6.958
	C420.557,151.859,417.422,166.593,410.233,179.663z M376.447,122.356c-8.784,0.911-17.588,3.315-25.594,8.061
	c-1.034,0.613-2.038,1.193-3.011,1.753c-5.935,3.425-11.567,6.686-16.29,13.067c-5.795-1.788-11.702-3.442-17.709-4.94
	c0.442-1.881,0.995-3.697,1.671-5.427c8.841-22.637,38.038-34.444,50.152-38.466C368.678,101.839,373.405,111.372,376.447,122.356z
	 M275.294,98.426c7.721,2.217,22.315,7.249,34.539,16.251c-3.435,4.393-6.352,9.267-8.462,14.669
	c-0.955,2.446-1.739,4.995-2.351,7.627c-11.321-2.251-22.956-3.896-34.84-4.793C266.23,118.102,271.907,105.179,275.294,98.426z
	 M104.336,182.58c0.141,0.242,0.286,0.481,0.425,0.724c0.284,0.497,0.563,0.996,0.838,1.497c0.356,0.645,0.707,1.294,1.049,1.945
	c0.266,0.505,0.529,1.012,0.788,1.522c0.335,0.661,0.661,1.327,0.983,1.994c0.243,0.505,0.488,1.009,0.723,1.518
	c0.321,0.692,0.629,1.389,0.935,2.087c0.215,0.49,0.434,0.978,0.642,1.47c0.32,0.759,0.624,1.526,0.927,2.291
	c0.173,0.437,0.354,0.873,0.522,1.312c0.403,1.057,0.786,2.121,1.156,3.19c0.053,0.152,0.111,0.302,0.164,0.455
	c0.415,1.216,0.807,2.44,1.179,3.669c0.129,0.423,0.243,0.849,0.365,1.275c0.238,0.818,0.474,1.637,0.692,2.461
	c0.133,0.501,0.254,1.006,0.38,1.51c0.189,0.754,0.377,1.508,0.549,2.266c0.121,0.533,0.234,1.068,0.348,1.604
	c0.157,0.737,0.31,1.474,0.451,2.214c0.105,0.547,0.203,1.095,0.301,1.644c0.13,0.738,0.253,1.477,0.368,2.218
	c0.085,0.549,0.168,1.098,0.246,1.649c0.105,0.753,0.2,1.508,0.291,2.265c0.065,0.54,0.131,1.079,0.187,1.621
	c0.083,0.787,0.151,1.576,0.217,2.366c0.043,0.512,0.091,1.024,0.127,1.538c0.061,0.873,0.103,1.748,0.144,2.624
	c0.02,0.432,0.049,0.864,0.064,1.296c0.046,1.309,0.072,2.621,0.072,3.936s-0.026,2.627-0.072,3.936
	c-0.015,0.433-0.044,0.864-0.064,1.296c-0.04,0.876-0.083,1.751-0.144,2.624c-0.035,0.513-0.084,1.024-0.127,1.538
	c-0.066,0.79-0.134,1.579-0.217,2.366c-0.057,0.541-0.122,1.08-0.187,1.62c-0.09,0.756-0.185,1.512-0.292,2.266
	c-0.077,0.55-0.16,1.099-0.245,1.648c-0.115,0.741-0.238,1.481-0.368,2.219c-0.096,0.549-0.195,1.096-0.3,1.642
	c-0.142,0.741-0.295,1.479-0.452,2.216c-0.113,0.535-0.226,1.069-0.347,1.602c-0.173,0.758-0.36,1.512-0.55,2.267
	c-0.127,0.503-0.247,1.008-0.38,1.509c-0.219,0.824-0.456,1.643-0.692,2.461c-0.124,0.424-0.238,0.851-0.365,1.275
	c-0.373,1.229-0.764,2.453-1.179,3.669c-0.053,0.153-0.111,0.303-0.164,0.456c-0.369,1.068-0.753,2.131-1.155,3.188
	c-0.168,0.441-0.35,0.878-0.524,1.317c-0.303,0.764-0.605,1.529-0.925,2.286c-0.209,0.494-0.428,0.984-0.644,1.476
	c-0.306,0.695-0.612,1.391-0.932,2.08c-0.237,0.511-0.482,1.018-0.727,1.526c-0.32,0.664-0.644,1.325-0.978,1.983
	c-0.26,0.513-0.525,1.023-0.794,1.533c-0.34,0.647-0.687,1.291-1.042,1.932c-0.278,0.504-0.559,1.008-0.845,1.509
	c-0.138,0.241-0.282,0.479-0.422,0.719c-41.718-20.916-72.623-45.41-85.259-56.156C31.716,227.988,62.62,203.495,104.336,182.58z
	 M132.44,323.968c22.709,8.796,45.233,14.988,67.43,18.536c-4.387,9.683-11.127,20.045-21.206,26.019
	c-8.115,4.811-17.641,6.439-26.965,6.39c-0.045-0.002-0.089,0-0.134-0.001c-14.652-0.104-28.782-4.347-36.112-6.964
	C116.954,358.418,121.272,338.538,132.44,323.968z M160.808,389.652c8.785-0.911,17.591-3.319,25.598-8.065
	c12.427-7.367,22.188-19.814,29.093-37.017c2.481,0.259,4.958,0.49,7.43,0.682c2.921,10.4,3.626,19.565-1.185,31.882
	c-8.843,22.642-38.051,34.45-50.16,38.469C168.573,410.184,163.852,400.672,160.808,389.652z M270.225,350.916
	c9.755,22.258-2.541,51.253-8.263,62.662c-7.721-2.218-22.316-7.246-34.539-16.248c3.436-4.394,6.354-9.269,8.464-14.672
	c4.859-12.442,5.776-23.461,2.871-36.64c1.72,0.033,3.439,0.056,5.155,0.056c7.798,0,15.503-0.362,23.108-1.015
	C268.264,346.969,269.352,348.923,270.225,350.916z M494.966,291.953c-0.801,0.652-2.953,2.003-5.633,0.434l-36.921-21.616
	c-8.706-5.098-19.383-4.863-27.867,0.617c-36.598,23.64-90.968,51.224-152.718,57.955c-1.399-0.26-2.864-0.131-4.218,0.414
	c-7.795,0.725-15.695,1.133-23.696,1.133c-10.686,0-21.493-0.693-32.398-2.062c-0.049-0.007-0.097-0.012-0.147-0.018
	c-30.451-3.837-61.681-12.981-93.275-27.343c0.053-0.093,0.101-0.187,0.154-0.28c0.23-0.406,0.446-0.817,0.671-1.225
	c0.485-0.88,0.967-1.761,1.429-2.65c0.258-0.496,0.505-0.995,0.757-1.494c0.41-0.814,0.816-1.629,1.208-2.451
	c0.255-0.534,0.502-1.07,0.749-1.607c0.368-0.802,0.73-1.607,1.082-2.414c0.238-0.547,0.474-1.094,0.704-1.645
	c0.342-0.819,0.673-1.641,0.998-2.466c0.214-0.542,0.428-1.081,0.634-1.626c0.329-0.872,0.643-1.749,0.953-2.628
	c0.176-0.5,0.359-0.997,0.529-1.499c0.355-1.05,0.69-2.107,1.018-3.166c0.103-0.335,0.217-0.666,0.318-1.002
	c0.419-1.396,0.814-2.799,1.184-4.208c0.094-0.357,0.175-0.719,0.266-1.077c0.268-1.056,0.529-2.115,0.77-3.178
	c0.118-0.523,0.224-1.05,0.336-1.575c0.193-0.907,0.383-1.814,0.556-2.726c0.109-0.575,0.21-1.153,0.311-1.73
	c0.153-0.871,0.3-1.743,0.434-2.618c0.092-0.595,0.178-1.192,0.261-1.789c0.121-0.871,0.233-1.744,0.337-2.618
	c0.07-0.594,0.14-1.187,0.201-1.783c0.094-0.9,0.173-1.803,0.248-2.706c0.047-0.568,0.098-1.135,0.138-1.704
	c0.069-0.991,0.117-1.985,0.163-2.98c0.022-0.482,0.053-0.962,0.07-1.444c0.051-1.476,0.081-2.956,0.081-4.439
	c0-1.483-0.03-2.962-0.081-4.438c-0.016-0.482-0.048-0.962-0.07-1.444c-0.046-0.995-0.095-1.989-0.163-2.98
	c-0.039-0.569-0.09-1.136-0.138-1.704c-0.075-0.903-0.154-1.806-0.248-2.705c-0.062-0.596-0.132-1.192-0.202-1.786
	c-0.103-0.873-0.215-1.743-0.336-2.613c-0.084-0.599-0.17-1.197-0.262-1.794c-0.135-0.873-0.281-1.743-0.433-2.612
	c-0.101-0.579-0.201-1.158-0.311-1.735c-0.173-0.909-0.361-1.815-0.555-2.719c-0.112-0.527-0.218-1.057-0.337-1.582
	c-0.24-1.059-0.5-2.113-0.767-3.165c-0.092-0.362-0.174-0.728-0.269-1.089c-0.371-1.408-0.765-2.81-1.184-4.205
	c-0.103-0.342-0.218-0.68-0.324-1.021c-0.326-1.052-0.658-2.102-1.011-3.145c-0.172-0.507-0.356-1.01-0.535-1.514
	c-0.308-0.873-0.62-1.744-0.947-2.611c-0.208-0.55-0.425-1.096-0.641-1.643c-0.322-0.818-0.65-1.633-0.989-2.445
	c-0.233-0.557-0.472-1.112-0.713-1.666c-0.348-0.8-0.706-1.595-1.07-2.388c-0.251-0.547-0.504-1.092-0.763-1.636
	c-0.385-0.805-0.782-1.605-1.183-2.401c-0.26-0.516-0.516-1.034-0.783-1.546c-0.448-0.859-0.914-1.712-1.382-2.562
	c-0.241-0.437-0.474-0.879-0.72-1.313c-0.05-0.087-0.095-0.177-0.145-0.264c42.962-19.53,85.251-29.424,125.82-29.424
	c73.155,0,138.607,32.357,180.632,59.501c8.48,5.478,19.161,5.716,27.866,0.618l36.922-21.617c2.68-1.569,4.831-0.22,5.633,0.434
	c0.802,0.653,2.558,2.489,1.565,5.428l-13.977,41.337c-1.408,4.161-1.408,8.745,0,12.904l13.977,41.337
	C497.525,289.465,495.768,291.301,494.966,291.953z"/>
<path d="M217.061,201.2c-4.194,0-7.593,3.398-7.593,7.593v59.888c0,4.194,3.398,7.593,7.593,7.593c4.194,0,7.593-3.398,7.593-7.593
	v-59.888C224.654,204.598,221.256,201.2,217.061,201.2z"/>
<path d="M244.888,201.2c-4.194,0-7.593,3.398-7.593,7.593v59.888c0,4.194,3.398,7.593,7.593,7.593c4.194,0,7.593-3.398,7.593-7.593
	v-59.888C252.48,204.598,249.082,201.2,244.888,201.2z"/>
<path d="M273.947,201.2c-4.194,0-7.593,3.398-7.593,7.593v59.888c0,4.194,3.398,7.593,7.593,7.593s7.593-3.398,7.593-7.593v-59.888
	C281.539,204.598,278.141,201.2,273.947,201.2z"/>
<path d="M92.726,238.736l5.36-5.36c2.965-2.965,2.965-7.773-0.001-10.737c-2.964-2.964-7.772-2.965-10.737,0.001L81.99,228
	l-5.358-5.359c-2.966-2.965-7.774-2.966-10.737-0.001c-2.966,2.965-2.966,7.773-0.001,10.737l5.36,5.36l-5.36,5.36
	c-2.965,2.965-2.965,7.773,0.001,10.737c1.482,1.482,3.426,2.223,5.368,2.223c1.943,0,3.886-0.741,5.369-2.224l5.358-5.359
	l5.358,5.359c1.483,1.483,3.426,2.224,5.369,2.224c1.943,0,3.886-0.741,5.368-2.223c2.966-2.965,2.966-7.773,0.001-10.737
	L92.726,238.736z"/>
</svg>